<?xml version="1.0" encoding="UTF-8"?>
<!DOCTYPE svg PUBLIC "-//W3C//DTD SVG 1.1//EN" "http://www.w3.org/Graphics/SVG/1.1/DTD/svg11.dtd">
<svg xmlns="http://www.w3.org/2000/svg" version="1.1" width="416px" height="400px" style="shape-rendering:geometricPrecision; text-rendering:geometricPrecision; image-rendering:optimizeQuality; fill-rule:evenodd; clip-rule:evenodd" xmlns:xlink="http://www.w3.org/1999/xlink">
<g><path style="opacity:0.944" fill="#a2c4e6" d="M 134.5,-0.5 C 135.167,-0.5 135.833,-0.5 136.5,-0.5C 142.355,4.70005 148.188,10.0334 154,15.5C 159.719,10.1098 165.719,5.10977 172,0.5C 179.137,5.31266 185.137,10.9793 190,17.5C 184.667,22.1667 179.333,26.8333 174,31.5C 173.333,32.1667 173.333,32.8333 174,33.5C 212.655,65.5286 249.989,99.1953 286,134.5C 325.742,175.93 358.076,222.597 383,274.5C 399.949,313.304 410.782,353.637 415.5,395.5C 415.5,396.833 415.5,398.167 415.5,399.5C 415.167,399.5 414.833,399.5 414.5,399.5C 397.243,356.902 380.077,314.235 363,271.5C 346.586,238.441 326.253,208.108 302,180.5C 288.529,166.029 274.696,151.862 260.5,138C 212.907,97.6185 165.407,57.1185 118,16.5C 117.333,15.8333 117.333,15.1667 118,14.5C 123.695,9.63419 129.195,4.63419 134.5,-0.5 Z"/></g>
<g><path style="opacity:0.948" fill="#a2c4e6" d="M 240.5,-0.5 C 241.167,-0.5 241.833,-0.5 242.5,-0.5C 247.825,4.82065 253.491,9.82065 259.5,14.5C 264.907,9.48377 270.241,4.48377 275.5,-0.5C 276.5,-0.5 277.5,-0.5 278.5,-0.5C 283.832,4.6 289.332,9.6 295,14.5C 295.667,15.1667 295.667,15.8333 295,16.5C 272.293,36.2093 249.293,55.5427 226,74.5C 220.595,69.2175 215.095,64.0508 209.5,59C 219.833,50 230.167,41 240.5,32C 234.467,26.9643 228.8,21.631 223.5,16C 228.997,10.337 234.663,4.83701 240.5,-0.5 Z"/></g>
<g><path style="opacity:0.246" fill="#a2c4e6" d="M 75.5,57.5 C 76.3138,59.631 76.8138,61.9644 77,64.5C 77.6667,93.5 77.6667,122.5 77,151.5C 76.7712,120.154 76.2712,88.821 75.5,57.5 Z"/></g>
<g><path style="opacity:0.251" fill="#a2c4e6" d="M -0.5,58.5 C 0.833333,89.5 0.833333,120.5 -0.5,151.5C -0.5,120.5 -0.5,89.5 -0.5,58.5 Z"/></g>
<g><path style="opacity:0.249" fill="#a2c4e6" d="M 62.5,59.5 C 63.6635,85.6635 63.8302,111.997 63,138.5C 62.5,112.169 62.3334,85.8354 62.5,59.5 Z"/></g>
<g><path style="opacity:0.248" fill="#a2c4e6" d="M 90.5,63.5 C 91.664,94.664 91.8307,125.997 91,157.5C 90.5,126.168 90.3334,94.8351 90.5,63.5 Z"/></g>
<g><path style="opacity:0.25" fill="#a2c4e6" d="M 318.5,65.5 C 319.664,96.3306 319.831,127.331 319,158.5C 318.5,127.502 318.333,96.5018 318.5,65.5 Z"/></g>
<g><path style="opacity:0.246" fill="#a2c4e6" d="M 13.5,66.5 C 14.6635,92.9968 14.8302,119.664 14,146.5C 13.5,119.835 13.3334,93.1687 13.5,66.5 Z"/></g>
<g><path style="opacity:0.247" fill="#a2c4e6" d="M 27.5,67.5 C 28.6625,87.3291 28.8291,107.329 28,127.5C 27.5,107.503 27.3334,87.5028 27.5,67.5 Z"/></g>
<g><path style="opacity:0.251" fill="#a2c4e6" d="M 51.5,68.5 C 52.6624,87.9957 52.8291,107.662 52,127.5C 51.5,107.836 51.3334,88.1695 51.5,68.5 Z"/></g>
<g><path style="opacity:0.247" fill="#a2c4e6" d="M 39.5,69.5 C 40.6609,83.9942 40.8276,98.6609 40,113.5C 39.5001,98.8371 39.3334,84.1705 39.5,69.5 Z"/></g>
<g><path style="opacity:0.248" fill="#a2c4e6" d="M 409.5,70.5 C 410.664,101.664 410.831,132.997 410,164.5C 409.5,133.168 409.333,101.835 409.5,70.5 Z"/></g>
<g><path style="opacity:0.251" fill="#a2c4e6" d="M 332.5,71.5 C 333.664,102.331 333.831,133.331 333,164.5C 332.5,133.502 332.333,102.502 332.5,71.5 Z"/></g>
<g><path style="opacity:0.249" fill="#a2c4e6" d="M 395.5,76.5 C 396.663,102.663 396.83,128.997 396,155.5C 395.5,129.169 395.333,102.835 395.5,76.5 Z"/></g>
<g><path style="opacity:0.247" fill="#a2c4e6" d="M 301.5,77.5 C 302.661,91.9942 302.828,106.661 302,121.5C 301.5,106.837 301.333,92.1705 301.5,77.5 Z"/></g>
<g><path style="opacity:0.93" fill="#a2c4e6" d="M 0.5,399.5 C 0.166667,399.5 -0.166667,399.5 -0.5,399.5C -0.5,398.833 -0.5,398.167 -0.5,397.5C 8.39696,316.393 38.2303,244.059 89,180.5C 117.061,145.437 148.227,113.271 182.5,84C 184.055,82.7107 185.721,82.044 187.5,82C 192.032,86.8671 196.866,91.3671 202,95.5C 202.617,96.4491 202.451,97.2825 201.5,98C 158.776,131.056 120.276,168.556 86,210.5C 65.9691,236.912 49.6358,265.579 37,296.5C 24.923,330.9 12.7564,365.233 0.5,399.5 Z"/></g>
<g><path style="opacity:0.248" fill="#a2c4e6" d="M 108.5,83.5 C 109.661,97.9942 109.828,112.661 109,127.5C 108.5,112.837 108.333,98.1705 108.5,83.5 Z"/></g>
<g><path style="opacity:0.253" fill="#a2c4e6" d="M 284.5,83.5 C 285.657,91.6563 285.823,99.9896 285,108.5C 284.5,100.173 284.334,91.84 284.5,83.5 Z"/></g>
<g><path style="opacity:0.249" fill="#a2c4e6" d="M 346.5,84.5 C 347.663,110.663 347.83,136.997 347,163.5C 346.5,137.169 346.333,110.835 346.5,84.5 Z"/></g>
<g><path style="opacity:0.241" fill="#a2c4e6" d="M 125.5,88.5 C 126.657,96.9901 126.824,105.657 126,114.5C 125.5,105.84 125.334,97.1731 125.5,88.5 Z"/></g>
<g><path style="opacity:0.25" fill="#a2c4e6" d="M 357.5,95.5 C 358.662,114.996 358.829,134.662 358,154.5C 357.5,134.836 357.333,115.169 357.5,95.5 Z"/></g>
<g><path style="opacity:0.246" fill="#a2c4e6" d="M 381.5,95.5 C 382.662,115.329 382.829,135.329 382,155.5C 381.5,135.503 381.333,115.503 381.5,95.5 Z"/></g>
<g><path style="opacity:0.245" fill="#a2c4e6" d="M 369.5,109.5 C 370.661,123.994 370.828,138.661 370,153.5C 369.5,138.837 369.333,124.17 369.5,109.5 Z"/></g>
<g><path style="opacity:0.913" fill="#a2c4e6" d="M 174.5,174.5 C 178.287,173.814 181.454,174.814 184,177.5C 185.79,181.327 186.956,185.327 187.5,189.5C 189.833,189.5 192.167,189.5 194.5,189.5C 194.464,183.8 196.464,178.967 200.5,175C 205.428,173.357 208.928,174.857 211,179.5C 212.15,182.768 212.984,186.101 213.5,189.5C 224.5,189.5 235.5,189.5 246.5,189.5C 246.453,183.806 248.453,178.973 252.5,175C 255.669,174.022 258.503,174.522 261,176.5C 263.349,180.195 264.849,184.195 265.5,188.5C 272.142,189.331 278.809,189.831 285.5,190C 286.833,192 286.833,194 285.5,196C 278.809,196.169 272.142,196.669 265.5,197.5C 264.849,201.805 263.349,205.805 261,209.5C 256.414,213.581 252.414,212.914 249,207.5C 247.438,203.986 246.605,200.319 246.5,196.5C 235.5,196.5 224.5,196.5 213.5,196.5C 212.956,200.673 211.79,204.673 210,208.5C 205.926,213.557 201.926,213.557 198,208.5C 195.715,204.813 194.548,200.813 194.5,196.5C 192.167,196.5 189.833,196.5 187.5,196.5C 186.956,200.673 185.79,204.673 184,208.5C 179.926,213.557 175.926,213.557 172,208.5C 169.901,204.769 168.734,200.769 168.5,196.5C 154.496,196.667 140.496,196.5 126.5,196C 125.065,193.733 125.398,191.733 127.5,190C 141.163,189.5 154.829,189.333 168.5,189.5C 168.58,183.681 170.58,178.681 174.5,174.5 Z"/></g>
<g><path style="opacity:0.908" fill="#a2c4e6" d="M 123.5,226.5 C 127.273,225.822 130.106,227.156 132,230.5C 134.099,234.231 135.266,238.231 135.5,242.5C 137.833,242.5 140.167,242.5 142.5,242.5C 142.734,238.231 143.901,234.231 146,230.5C 150,225.167 154,225.167 158,230.5C 160.099,234.231 161.266,238.231 161.5,242.5C 172.5,242.5 183.5,242.5 194.5,242.5C 194.68,237.127 196.346,232.294 199.5,228C 203.78,225.523 207.28,226.356 210,230.5C 211.985,234.259 213.152,238.259 213.5,242.5C 215.833,242.5 218.167,242.5 220.5,242.5C 220.68,237.127 222.346,232.294 225.5,228C 229.78,225.523 233.28,226.356 236,230.5C 237.79,234.327 238.956,238.327 239.5,242.5C 241.833,242.5 244.167,242.5 246.5,242.5C 246.573,237.873 247.74,233.54 250,229.5C 254.294,225.399 258.294,225.732 262,230.5C 263.79,234.327 264.956,238.327 265.5,242.5C 267.833,242.5 270.167,242.5 272.5,242.5C 272.338,237.818 273.505,233.485 276,229.5C 280.294,225.399 284.294,225.732 288,230.5C 289.606,234.031 290.772,237.698 291.5,241.5C 299.479,242.332 307.479,242.832 315.5,243C 318.167,245 318.167,247 315.5,249C 307.479,249.168 299.479,249.668 291.5,250.5C 290.771,255.869 288.438,260.369 284.5,264C 281.044,265.123 278.21,264.29 276,261.5C 273.715,257.813 272.548,253.813 272.5,249.5C 270.076,249.192 267.743,249.526 265.5,250.5C 264.771,255.869 262.438,260.369 258.5,264C 255.044,265.123 252.21,264.29 250,261.5C 247.715,257.813 246.548,253.813 246.5,249.5C 244.076,249.192 241.743,249.526 239.5,250.5C 238.848,255.469 236.848,259.802 233.5,263.5C 229.779,265.243 226.612,264.576 224,261.5C 221.901,257.769 220.734,253.769 220.5,249.5C 218.167,249.5 215.833,249.5 213.5,249.5C 213.076,254.192 211.576,258.525 209,262.5C 205.064,265.314 201.397,264.981 198,261.5C 195.901,257.769 194.734,253.769 194.5,249.5C 183.5,249.5 172.5,249.5 161.5,249.5C 161.11,254.505 159.444,259.005 156.5,263C 151.498,265.601 147.665,264.434 145,259.5C 143.648,256.28 142.814,252.947 142.5,249.5C 140.167,249.5 137.833,249.5 135.5,249.5C 135.112,254.499 133.446,258.999 130.5,263C 125.498,265.601 121.665,264.434 119,259.5C 117.85,256.232 117.016,252.899 116.5,249.5C 109.492,249.666 102.492,249.5 95.5,249C 93.3799,247.477 93.0465,245.644 94.5,243.5C 101.803,242.503 109.137,242.169 116.5,242.5C 116.668,236.169 119.001,230.836 123.5,226.5 Z"/></g>
<g><path style="opacity:0.914" fill="#a2c4e6" d="M 272.5,295.5 C 272.5,296.167 272.833,296.5 273.5,296.5C 273.5,297.833 273.5,299.167 273.5,300.5C 272.833,300.5 272.5,300.833 272.5,301.5C 252.898,302.155 233.231,302.822 213.5,303.5C 212.633,306.935 211.466,310.269 210,313.5C 206,318.833 202,318.833 198,313.5C 195.867,309.768 194.534,305.768 194,301.5C 191.959,302.423 189.792,302.756 187.5,302.5C 187.334,309.518 184.167,314.518 178,317.5C 171.833,314.518 168.666,309.518 168.5,302.5C 166.167,302.5 163.833,302.5 161.5,302.5C 161.334,309.518 158.167,314.518 152,317.5C 145.833,314.518 142.666,309.518 142.5,302.5C 140.167,302.5 137.833,302.5 135.5,302.5C 135.334,309.518 132.167,314.518 126,317.5C 119.833,314.518 116.666,309.518 116.5,302.5C 114.167,302.5 111.833,302.5 109.5,302.5C 109.334,309.518 106.167,314.518 100,317.5C 93.8327,314.518 90.666,309.518 90.5,302.5C 84.8236,302.666 79.1569,302.499 73.5,302C 71.3017,300.33 70.9683,298.33 72.5,296C 78.4908,295.501 84.4908,295.334 90.5,295.5C 90.6426,289.566 92.6426,284.399 96.5,280C 100.274,278.817 103.441,279.651 106,282.5C 108.26,286.54 109.427,290.873 109.5,295.5C 111.833,295.5 114.167,295.5 116.5,295.5C 116.643,289.566 118.643,284.399 122.5,280C 126.274,278.817 129.441,279.651 132,282.5C 134.09,286.599 135.256,290.933 135.5,295.5C 137.833,295.5 140.167,295.5 142.5,295.5C 142.64,289.575 144.64,284.408 148.5,280C 152.274,278.817 155.441,279.651 158,282.5C 159.949,286.629 161.116,290.963 161.5,295.5C 163.833,295.5 166.167,295.5 168.5,295.5C 168.301,289.448 170.301,284.281 174.5,280C 179.428,278.357 182.928,279.857 185,284.5C 186.31,288.07 187.143,291.737 187.5,295.5C 189.833,295.5 192.167,295.5 194.5,295.5C 194.573,290.873 195.74,286.54 198,282.5C 204.793,277.547 209.46,279.214 212,287.5C 212.822,290.117 213.322,292.784 213.5,295.5C 233.167,295.5 252.833,295.5 272.5,295.5 Z M 91.5,296.5 C 93.8586,297.389 94.0253,298.722 92,300.5C 91.51,299.207 91.3433,297.873 91.5,296.5 Z"/></g>
<g><path style="opacity:0.923" fill="#a2c4e6" d="M 298.5,295.5 C 298.5,296.167 298.833,296.5 299.5,296.5C 299.5,297.833 299.5,299.167 299.5,300.5C 298.833,300.5 298.5,300.833 298.5,301.5C 296.254,302.21 293.92,302.71 291.5,303C 290.787,307.139 289.287,310.972 287,314.5C 282.203,318.802 278.203,318.136 275,312.5C 273.378,309.013 272.545,305.346 272.5,301.5C 273.167,301.5 273.5,301.167 273.5,300.5C 274.833,299.167 274.833,297.833 273.5,296.5C 272.833,296.5 272.5,296.167 272.5,295.5C 272.338,290.818 273.505,286.485 276,282.5C 280.352,278.335 284.352,278.669 288,283.5C 289.79,287.327 290.956,291.327 291.5,295.5C 293.833,295.5 296.167,295.5 298.5,295.5 Z"/></g>
<g><path style="opacity:0.92" fill="#a2c4e6" d="M 298.5,301.5 C 299.167,301.5 299.5,301.167 299.5,300.5C 300.833,299.167 300.833,297.833 299.5,296.5C 298.833,296.5 298.5,296.167 298.5,295.5C 298.252,289.404 300.252,284.237 304.5,280C 308.627,278.708 311.794,279.875 314,283.5C 315.606,287.031 316.772,290.698 317.5,294.5C 324.142,295.331 330.809,295.831 337.5,296C 339.032,298.33 338.698,300.33 336.5,302C 330.167,302.333 323.833,302.667 317.5,303C 316.717,307.073 315.217,310.906 313,314.5C 308.203,318.802 304.203,318.136 301,312.5C 299.096,309.077 298.263,305.41 298.5,301.5 Z"/></g>
<g><path style="opacity:0.905" fill="#a2c4e6" d="M 98.5,331.5 C 101.617,331.642 104.117,332.976 106,335.5C 108.099,339.231 109.266,343.231 109.5,347.5C 129.167,347.5 148.833,347.5 168.5,347.5C 168.37,340.077 171.537,334.744 178,331.5C 184.463,334.744 187.63,340.077 187.5,347.5C 189.833,347.5 192.167,347.5 194.5,347.5C 194.069,339.896 197.236,334.563 204,331.5C 206.499,332.083 208.499,333.416 210,335.5C 211.79,339.327 212.956,343.327 213.5,347.5C 215.833,347.5 218.167,347.5 220.5,347.5C 220.163,340.087 223.163,334.753 229.5,331.5C 232.214,331.94 234.38,333.274 236,335.5C 237.79,339.327 238.956,343.327 239.5,347.5C 241.833,347.5 244.167,347.5 246.5,347.5C 245.919,339.982 248.919,334.648 255.5,331.5C 258.214,331.94 260.38,333.274 262,335.5C 263.79,339.327 264.956,343.327 265.5,347.5C 267.833,347.5 270.167,347.5 272.5,347.5C 271.936,339.943 274.936,334.61 281.5,331.5C 285.033,332.198 287.533,334.198 289,337.5C 289.897,340.49 290.731,343.49 291.5,346.5C 293.743,347.474 296.076,347.808 298.5,347.5C 298.338,342.818 299.505,338.485 302,334.5C 305.667,330.5 309.333,330.5 313,334.5C 315.349,338.195 316.849,342.195 317.5,346.5C 328.485,347.332 339.485,347.832 350.5,348C 351.935,350.267 351.602,352.267 349.5,354C 338.833,354.333 328.167,354.667 317.5,355C 316.879,360.532 314.546,365.199 310.5,369C 307.044,370.123 304.21,369.29 302,366.5C 299.715,362.813 298.548,358.813 298.5,354.5C 296.076,354.192 293.743,354.526 291.5,355.5C 290.648,360.4 288.648,364.733 285.5,368.5C 281.779,370.243 278.612,369.576 276,366.5C 273.715,362.813 272.548,358.813 272.5,354.5C 270.076,354.192 267.743,354.526 265.5,355.5C 264.849,359.805 263.349,363.805 261,367.5C 256.982,370.439 253.315,370.105 250,366.5C 247.715,362.813 246.548,358.813 246.5,354.5C 244.076,354.192 241.743,354.526 239.5,355.5C 238.849,359.805 237.349,363.805 235,367.5C 230.982,370.439 227.315,370.105 224,366.5C 221.715,362.813 220.548,358.813 220.5,354.5C 218.167,354.5 215.833,354.5 213.5,354.5C 213.076,359.192 211.576,363.525 209,367.5C 204.982,370.439 201.315,370.105 198,366.5C 195.901,362.769 194.734,358.769 194.5,354.5C 192.167,354.5 189.833,354.5 187.5,354.5C 187.11,359.505 185.444,364.005 182.5,368C 178.526,370.364 175.026,369.864 172,366.5C 169.901,362.769 168.734,358.769 168.5,354.5C 148.833,354.5 129.167,354.5 109.5,354.5C 109.266,358.769 108.099,362.769 106,366.5C 100.956,370.826 96.6222,370.16 93,364.5C 91.8497,361.232 91.0164,357.899 90.5,354.5C 80.1613,354.666 69.828,354.5 59.5,354C 58.1667,352 58.1667,350 59.5,348C 69.828,347.5 80.1613,347.334 90.5,347.5C 90.5508,340.731 93.2175,335.398 98.5,331.5 Z M 82.5,348.5 C 84.898,349.882 85.0647,351.549 83,353.5C 82.5065,351.866 82.3398,350.199 82.5,348.5 Z"/></g>
</svg>
